<svg width="80" height="80" viewBox="0 0 80 80" fill="none" xmlns="http://www.w3.org/2000/svg">
<circle cx="40" cy="40" r="38.5" fill="white" stroke="black" stroke-width="3"/>
<path d="M48.008 20H31.992C30.9333 20 29.9179 20.4206 29.1692 21.1692C28.4206 21.9179 28 22.9333 28 23.992V56.006C28 58.212 29.788 60 31.992 60H48.006C49.0649 60 50.0805 59.5795 50.8295 58.8309C51.5784 58.0823 51.9995 57.0669 52 56.008V23.992C52 22.9333 51.5794 21.9179 50.8308 21.1692C50.0821 20.4206 49.0667 20 48.008 20ZM40 58C38.62 58 37.5 57.106 37.5 56C37.5 54.894 38.62 54 40 54C41.38 54 42.5 54.894 42.5 56C42.5 57.106 41.38 58 40 58ZM48 52H32V24H48V52Z" fill="black"/>
</svg>
