<svg width="80" height="80" viewBox="0 0 80 80" fill="none" xmlns="http://www.w3.org/2000/svg">
<circle cx="40" cy="40" r="38.5" fill="white" stroke="black" stroke-width="3"/>
<path d="M58.5 38.8333C58.5 50.3958 50.5 61.2083 39.75 63.8333C29 61.2083 21 50.3958 21 38.8333V26.3333L39.75 18L58.5 26.3333V38.8333ZM39.75 59.6667C47.5625 57.5833 54.3333 48.2917 54.3333 39.2917V29.0417L39.75 22.5417L25.1667 29.0417V39.2917C25.1667 48.2917 31.9375 57.5833 39.75 59.6667ZM45.5833 38.8333V35.7083C45.5833 32.7917 42.6667 30.5 39.75 30.5C36.8333 30.5 33.9167 32.7917 33.9167 35.7083V38.8333C32.6667 38.8333 31.4167 40.0833 31.4167 41.3333V48.625C31.4167 50.0833 32.6667 51.3333 33.9167 51.3333H45.375C46.8333 51.3333 48.0833 50.0833 48.0833 48.8333V41.5417C48.0833 40.0833 46.8333 38.8333 45.5833 38.8333ZM42.875 38.8333H36.625V35.7083C36.625 34.0417 38.0833 33 39.75 33C41.4167 33 42.875 34.0417 42.875 35.7083V38.8333Z" fill="black"/>
</svg>
