<svg width="80" height="80" viewBox="0 0 80 80" fill="none" xmlns="http://www.w3.org/2000/svg">
<circle cx="40" cy="40" r="38.5" fill="white" stroke="black" stroke-width="3"/>
<path d="M48.72 43C48.88 41.68 49 40.36 49 39C49 37.64 48.88 36.32 48.72 35H55.48C55.8 36.28 56 37.62 56 39C56 40.38 55.8 41.72 55.48 43M45.18 54.12C46.38 51.9 47.3 49.5 47.94 47H53.84C51.9023 50.3366 48.8282 52.864 45.18 54.12ZM44.68 43H35.32C35.12 41.68 35 40.36 35 39C35 37.64 35.12 36.3 35.32 35H44.68C44.86 36.3 45 37.64 45 39C45 40.36 44.86 41.68 44.68 43ZM40 54.92C38.34 52.52 37 49.86 36.18 47H43.82C43 49.86 41.66 52.52 40 54.92ZM32 31H26.16C28.0777 27.6544 31.1496 25.123 34.8 23.88C33.6 26.1 32.7 28.5 32 31ZM26.16 47H32C32.7 49.5 33.6 51.9 34.8 54.12C31.1572 52.8633 28.0897 50.3354 26.16 47ZM24.52 43C24.2 41.72 24 40.38 24 39C24 37.62 24.2 36.28 24.52 35H31.28C31.12 36.32 31 37.64 31 39C31 40.36 31.12 41.68 31.28 43M40 23.06C41.66 25.46 43 28.14 43.82 31H36.18C37 28.14 38.34 25.46 40 23.06ZM53.84 31H47.94C47.314 28.5229 46.3871 26.1318 45.18 23.88C48.86 25.14 51.92 27.68 53.84 31ZM40 19C28.94 19 20 28 20 39C20 44.3043 22.1071 49.3914 25.8579 53.1421C27.715 54.9993 29.9198 56.4725 32.3463 57.4776C34.7728 58.4827 37.3736 59 40 59C45.3043 59 50.3914 56.8929 54.1421 53.1421C57.8929 49.3914 60 44.3043 60 39C60 36.3736 59.4827 33.7728 58.4776 31.3463C57.4725 28.9198 55.9993 26.715 54.1421 24.8579C52.285 23.0007 50.0802 21.5275 47.6537 20.5224C45.2272 19.5173 42.6264 19 40 19Z" fill="black"/>
</svg>
